<?xml version="1.0" encoding="UTF-8"?>
<svg version="1.1" xmlns="http://www.w3.org/2000/svg" width="303" height="291">
<path d="M0 0 C24.83424084 22.01936514 43.43376626 56.79087871 45.79394531 90.17919922 C46.91650121 112.85385641 45.74792731 134.06629706 37.90673828 155.45751953 C37.65408203 156.15087402 37.40142578 156.84422852 37.14111328 157.55859375 C24.49789745 191.59146577 -1.17400945 219.89907655 -34.09326172 235.45751953 C-69.14895897 250.71434274 -108.43580454 253.17819234 -144.46435547 239.48095703 C-159.77111421 233.33940763 -173.61357729 225.2789154 -186.09326172 214.45751953 C-186.92212891 213.74982422 -187.75099609 213.04212891 -188.60498047 212.31298828 C-215.62953472 188.68202277 -231.61610059 155.86779389 -236.09326172 120.45751953 C-236.84982975 104.2004774 -237.33402846 87.26228184 -233.09326172 71.45751953 C-232.89458496 70.68085937 -232.6959082 69.90419922 -232.49121094 69.10400391 C-227.71475064 50.74236029 -220.22642366 34.79768275 -209.09326172 19.45751953 C-208.47064453 18.58998047 -207.84802734 17.72244141 -207.20654297 16.82861328 C-185.39971757 -11.88449522 -152.24565996 -31.1500447 -116.54248047 -36.22998047 C-73.24505036 -41.7784761 -32.76342704 -28.37939841 0 0 Z " fill="#FEFEFE" transform="translate(243.09326171875,41.54248046875)"/>
<path d="M0 0 C-0.99509796 5.01165082 -2.0029393 10.01882448 -3.0703125 15.015625 C-7.85261398 38.22755253 -9.03309635 63.65549769 3.6328125 84.71484375 C5.32550638 87.23870345 7.10046259 89.62868206 9 92 C9.74830078 92.93779297 9.74830078 92.93779297 10.51171875 93.89453125 C20.17853914 104.68143663 35.59415097 109.72567132 49 114 C48.42208519 117.98119095 47.18914835 120.7244425 45.0625 124.125 C44.53785156 124.97320312 44.01320313 125.82140625 43.47265625 126.6953125 C42.33469232 128.47621096 41.17231673 130.2415249 40 132 C65.11420505 148.13218348 93.89118454 154.66911635 123.5 148.25 C129.29435027 146.9108748 134.86304897 145.21196356 140.28515625 142.734375 C142 142 142 142 144 142 C142.72055382 147.1639503 140.89785635 151.50269179 138.125 156.0625 C137.53996704 157.02760498 137.53996704 157.02760498 136.94311523 158.01220703 C122.40843006 181.23028223 98.86532096 199.59582304 72 206 C70.96488281 206.27714844 69.92976562 206.55429688 68.86328125 206.83984375 C42.46473079 213.14180794 14.42696371 208.40865329 -9 195 C-35.68404588 178.43189861 -53.15886026 153.82614222 -60.375 123.25 C-63.95670827 106.33746067 -63.99461825 86.61516151 -59 70 C-58.48953125 68.29650391 -58.48953125 68.29650391 -57.96875 66.55859375 C-53.05677923 51.70651997 -46.019811 38.94296827 -36 27 C-35.36578125 26.20207031 -34.7315625 25.40414062 -34.078125 24.58203125 C-27.4853645 16.62282252 -10.98421524 0 0 0 Z " fill="#1252A1" transform="translate(105,45)"/>
</svg>
