<svg width="205" height="50" viewBox="0 0 205 50" fill="none" xmlns="http://www.w3.org/2000/svg">
<g id="logo" clip-path="url(#clip0_1107_18748)">
<path id="Vector" d="M84.7053 14.8165C83.6661 9.62601 80.7618 7.23078 76.2 7.23078C70.8069 7.23078 66.2451 10.4261 66.2451 20.0071C66.2451 25.9977 69.1495 31.9832 76.2 31.9832C80.3513 31.9832 83.2505 29.988 85.5314 26.3927L86.3627 26.9928C83.6661 31.9833 79.9305 33.5784 74.953 33.5784C67.0712 33.5784 62.0938 27.5878 62.0938 20.0021C62.0938 12.0163 67.9025 5.63062 74.953 5.63062C79.5148 5.63062 83.0011 7.06576 84.4922 8.82593C85.5262 10.0211 85.5262 12.4163 85.5262 14.8115H84.6949L84.7053 14.8165Z" fill="white"/>
<path id="Vector_2" d="M111.255 27.9928C111.255 30.3881 111.67 31.9832 114.159 31.9832H114.991V32.7833H111.255C108.35 32.7833 107.519 31.9832 107.519 27.9928V20.007H95.0755V32.7833H91.3451V11.2211C91.3451 8.8259 90.9294 7.23074 88.4407 7.23074H87.6094V6.43066H91.3451C94.2494 6.43066 95.0755 7.23074 95.0755 11.2211V18.4069H107.519V6.43066H111.255V27.9878V27.9928Z" fill="white"/>
<path id="Vector_3" d="M122.041 23.5973H132.204L127.226 12.0211L122.041 23.5973ZM142.782 32.7782C142.366 32.8982 141.743 32.9782 141.125 32.9782C139.259 32.9782 135.898 32.3781 134.074 27.7877L133.04 25.1924H121.423L118.103 32.7782H116.237L127.855 6.42554H129.102L138.231 27.7877C139.514 30.783 140.511 31.7781 142.792 31.9781V32.7782H142.782Z" fill="white"/>
<path id="Vector_4" d="M145.266 6.43066H149.001V27.9928C149.001 30.3881 149.417 31.9832 151.906 31.9832H152.737V32.7833H149.007C146.102 32.7833 145.271 31.9832 145.271 27.9928V6.43066H145.266Z" fill="white"/>
<path id="Vector_5" d="M161.153 30.8681C162.852 31.2281 164.266 31.3882 165.383 31.3882C171.524 31.3882 176.21 26.8377 176.21 19.612C176.21 12.3863 171.649 7.8358 165.299 7.8358C164.099 7.8358 162.645 8.03583 161.153 8.47587V30.8731V30.8681ZM164.432 6.43566C175.384 6.43566 180.736 11.4662 180.736 19.452C180.736 27.4378 175.551 32.7883 165.513 32.7883H157.298V11.2261C157.298 8.8309 156.883 7.23074 154.394 7.23074H153.562V6.43066H164.432V6.43566Z" fill="white"/>
<path id="Vector_6" d="M200.064 6.43066C202.969 6.43066 203.592 8.02582 203.592 9.62598V12.6213H202.761C202.761 9.42596 200.896 8.03082 197.576 8.03082H189.86V18.4119H201.062V20.012H189.86V31.1931H197.118C200.849 31.1931 202.927 29.998 204.169 26.8027L205 27.0027L203.551 30.7931C203.093 31.9932 202.096 32.7883 200.438 32.7883H186.124V11.2211C186.124 8.8259 185.709 7.23074 183.22 7.23074H182.389V6.43066H200.059H200.064Z" fill="white"/>
<path id="Vector_7" d="M64.1974 43.5142H64.0675C63.87 43.5142 63.6778 43.4842 63.4856 43.4342C63.2881 43.3842 63.1011 43.3142 62.9244 43.2242C62.7426 43.1292 62.5763 43.0142 62.436 42.8842C62.2958 42.7542 62.1815 42.6192 62.1035 42.4691L62.8673 42.0941C62.9036 42.1641 62.9608 42.2341 63.0439 42.3041C63.1219 42.3741 63.2206 42.4391 63.3297 42.4941C63.4388 42.5491 63.5583 42.5992 63.6882 42.6342C63.8181 42.6692 63.9532 42.6892 64.0986 42.6892H64.1246C64.2337 42.6992 64.3688 42.6892 64.5247 42.6542C64.6858 42.6242 64.8364 42.5691 64.9819 42.4891C65.2936 42.3191 65.4599 42.0941 65.4807 41.8091C65.4963 41.6291 65.4443 41.479 65.3404 41.369C65.2365 41.259 65.0806 41.174 64.878 41.114C64.6754 41.054 64.4416 41.024 64.187 41.024C64.109 41.024 64.0051 41.024 63.8752 41.009C63.7401 40.999 63.5999 40.979 63.4492 40.939C63.0699 40.849 62.7686 40.694 62.5555 40.4789C62.4308 40.3489 62.3373 40.1989 62.2802 40.0289C62.2178 39.8639 62.1918 39.6789 62.2022 39.4838C62.2282 39.0888 62.3737 38.7588 62.6439 38.4987C62.7582 38.3837 62.8933 38.2887 63.0439 38.2137C63.1946 38.1337 63.3609 38.0787 63.5427 38.0337C63.7661 37.9837 63.9947 37.9637 64.2233 37.9737C64.4571 37.9837 64.6858 38.0237 64.9092 38.0887C65.1534 38.1687 65.3612 38.2687 65.5482 38.3937C65.7301 38.5187 65.8704 38.6688 65.9691 38.8438L65.2313 39.2488C65.1845 39.1738 65.1118 39.0988 65.0131 39.0388C64.9144 38.9738 64.7949 38.9238 64.6546 38.8788C64.5091 38.8338 64.3532 38.8088 64.1974 38.7988C64.0415 38.7938 63.8856 38.8038 63.7401 38.8338C63.3089 38.9288 63.0803 39.1638 63.0647 39.5338C63.0543 39.6389 63.0647 39.7189 63.0959 39.7789C63.1271 39.8339 63.1582 39.8789 63.1842 39.9139C63.2933 40.0189 63.444 40.0939 63.6414 40.1389C63.8337 40.1839 64.0259 40.2039 64.2026 40.2039C64.587 40.2039 64.93 40.2589 65.2365 40.3589C65.543 40.4639 65.7924 40.614 65.9795 40.809C66.2652 41.099 66.3847 41.454 66.3484 41.8791C66.3172 42.1841 66.2133 42.4541 66.0262 42.6942C65.8704 42.8992 65.6677 43.0692 65.4131 43.2092C65.2313 43.3042 65.0391 43.3792 64.826 43.4342C64.613 43.4842 64.4104 43.5142 64.213 43.5142" fill="white"/>
<path id="Vector_8" d="M70.1411 43.4994C69.819 43.4994 69.5384 43.4644 69.2994 43.3994C69.0604 43.3344 68.8526 43.2494 68.6812 43.1444C68.5097 43.0394 68.3694 42.9194 68.2551 42.7893C68.1408 42.6593 68.0525 42.5343 67.9849 42.4093C67.907 42.2693 67.8498 42.1343 67.8083 41.9943C67.7667 41.8543 67.7355 41.7242 67.7148 41.5992C67.694 41.4742 67.6836 41.3642 67.6836 41.2642C67.6836 41.1642 67.6836 41.0842 67.6836 41.0292V38.0989H68.5357V41.0292C68.5357 41.0742 68.5357 41.1342 68.5357 41.2092C68.5357 41.2842 68.5461 41.3642 68.5565 41.4542C68.5669 41.5442 68.5876 41.6342 68.6188 41.7342C68.65 41.8342 68.6864 41.9293 68.7383 42.0193C68.9773 42.4543 69.4449 42.6693 70.1411 42.6693C70.8374 42.6693 71.305 42.4543 71.544 42.0193C71.5959 41.9293 71.6375 41.8342 71.6635 41.7342C71.6894 41.6342 71.7102 41.5392 71.7258 41.4542C71.7362 41.3642 71.7466 41.2842 71.7466 41.2092C71.7466 41.1342 71.7466 41.0742 71.7466 41.0292V38.0989H72.5987V41.0292C72.5987 41.0842 72.5987 41.1592 72.5987 41.2642C72.5987 41.3642 72.5883 41.4742 72.5675 41.5992C72.5467 41.7242 72.5156 41.8543 72.474 41.9943C72.4324 42.1343 72.3701 42.2693 72.2973 42.4093C72.2298 42.5343 72.1415 42.6593 72.0272 42.7893C71.9129 42.9194 71.7726 43.0394 71.6011 43.1444C71.4297 43.2494 71.227 43.3344 70.9828 43.3994C70.7438 43.4644 70.4633 43.4994 70.1411 43.4994Z" fill="white"/>
<path id="Vector_9" d="M75.4048 38.9288V40.229H77.7688V41.0491H75.4048V42.5742H77.8468V43.3993H74.5527V38.1038H77.8468V38.9288H75.4048Z" fill="white"/>
<path id="Vector_10" d="M82.6627 38.439C82.5172 38.439 82.3769 38.414 82.247 38.3589C82.1224 38.3039 82.008 38.2339 81.9041 38.1339L81.821 38.0539C81.7794 38.0139 81.7275 37.9939 81.6651 37.9939C81.6443 37.9939 81.6236 37.9939 81.5976 38.0039C81.5716 38.0089 81.5456 38.0239 81.5249 38.0489C81.5041 38.0689 81.4781 38.0989 81.4365 38.1439C81.4002 38.1839 81.3586 38.2339 81.3066 38.2889L80.652 37.7539C80.6883 37.7189 80.7351 37.6739 80.7819 37.6189C80.8338 37.5639 80.8754 37.5189 80.9066 37.4789C81.0001 37.3788 81.1144 37.3038 81.2443 37.2538C81.3742 37.2038 81.5093 37.1788 81.6547 37.1738H81.6651C81.8054 37.1738 81.9457 37.1988 82.0756 37.2538C82.2107 37.3088 82.325 37.3789 82.4237 37.4739L82.5068 37.5539C82.5328 37.5839 82.5588 37.5989 82.5848 37.6039C82.6107 37.6089 82.6367 37.6139 82.6575 37.6139C82.6731 37.6139 82.6939 37.6139 82.7199 37.6039C82.7458 37.5989 82.777 37.5789 82.803 37.5539C82.8393 37.5239 82.8705 37.4839 82.9121 37.4439C82.9485 37.4039 82.9848 37.3689 83.0108 37.3338L83.6655 37.8539C83.6655 37.8539 83.6187 37.9139 83.5667 37.9739C83.5148 38.0289 83.4628 38.0839 83.4109 38.1339C83.307 38.2289 83.1875 38.3039 83.0628 38.3589C82.9329 38.414 82.7978 38.439 82.6575 38.439M80.5533 39.7991V43.3945H79.7012V37.8539L83.8265 41.7193V38.0989H84.6786V43.6645L80.5533 39.7991Z" fill="white"/>
<path id="Vector_11" d="M88.0608 41.2742H89.5623L88.809 39.749L88.0608 41.2742ZM90.7002 43.5744L89.9676 42.0943H87.6555L86.9281 43.5744L86.1592 43.2244L88.8038 37.8289L91.464 43.2244L90.695 43.5744H90.7002Z" fill="white"/>
<path id="Vector_12" d="M98.5516 43.4994C98.1671 43.4994 97.7982 43.4244 97.4397 43.2794C97.0968 43.1444 96.7955 42.9444 96.5253 42.6894C96.2603 42.4343 96.0577 42.1393 95.9122 41.8143C95.7615 41.4742 95.6836 41.1142 95.6836 40.7442C95.6836 40.3741 95.7615 40.0191 95.9122 39.6691C96.0577 39.334 96.2603 39.044 96.5253 38.799C96.7903 38.5489 97.0916 38.3489 97.4397 38.2039C97.6164 38.1289 97.793 38.0789 97.9801 38.0439C98.1619 38.0089 98.3542 37.9939 98.5516 37.9939C98.9465 37.9939 99.3154 38.0639 99.6687 38.2089C99.8349 38.2839 99.996 38.3689 100.147 38.4639C100.297 38.559 100.443 38.674 100.573 38.799L99.9752 39.379C99.7778 39.199 99.5596 39.059 99.3206 38.964C99.0764 38.869 98.8218 38.819 98.5516 38.819C98.2814 38.819 98.0164 38.869 97.7722 38.969C97.528 39.069 97.315 39.209 97.1332 39.384C96.9513 39.5591 96.811 39.7641 96.7019 39.9991C96.598 40.2341 96.5409 40.4841 96.5409 40.7492C96.5409 41.0142 96.5928 41.2642 96.7019 41.4992C96.811 41.7343 96.9513 41.9393 97.1332 42.1143C97.315 42.2893 97.5229 42.4243 97.7722 42.5294C98.0164 42.6344 98.2762 42.6844 98.5516 42.6844C98.827 42.6844 99.0764 42.6344 99.3206 42.5394C99.5596 42.4443 99.7778 42.3043 99.9752 42.1243L100.573 42.6994C100.308 42.9544 100.006 43.1494 99.6687 43.2894C99.3102 43.4344 98.9361 43.5094 98.5516 43.5094" fill="white"/>
<path id="Vector_13" d="M104.781 38.789C104.501 38.789 104.236 38.839 103.992 38.944C103.747 39.044 103.529 39.189 103.347 39.364C103.16 39.544 103.015 39.749 102.911 39.9891C102.802 40.2241 102.75 40.4791 102.75 40.7491C102.75 41.0192 102.802 41.2692 102.911 41.5092C103.02 41.7442 103.166 41.9543 103.347 42.1343C103.529 42.3143 103.747 42.4543 103.992 42.5543C104.236 42.6593 104.501 42.7093 104.781 42.7093C105.062 42.7093 105.322 42.6593 105.571 42.5543C105.815 42.4543 106.034 42.3093 106.215 42.1343C106.402 41.9543 106.548 41.7492 106.652 41.5092C106.761 41.2742 106.813 41.0192 106.813 40.7491C106.813 40.4791 106.761 40.2241 106.652 39.9891C106.548 39.749 106.402 39.544 106.215 39.364C106.028 39.189 105.815 39.044 105.571 38.944C105.327 38.839 105.062 38.789 104.781 38.789ZM104.781 43.5244C104.392 43.5244 104.018 43.4544 103.659 43.3044C103.316 43.1694 103.01 42.9694 102.739 42.7093C102.469 42.4493 102.261 42.1543 102.121 41.8243C101.971 41.4792 101.893 41.1192 101.893 40.7441C101.893 40.3691 101.971 40.0091 102.121 39.664C102.267 39.334 102.469 39.039 102.739 38.779C103.01 38.5189 103.316 38.3189 103.659 38.1839C104.018 38.0389 104.392 37.9639 104.781 37.9639C105.171 37.9639 105.545 38.0389 105.904 38.1839C106.247 38.3189 106.553 38.5189 106.823 38.779C107.093 39.039 107.301 39.334 107.442 39.664C107.592 40.0091 107.67 40.3691 107.67 40.7441C107.67 41.1192 107.592 41.4792 107.442 41.8243C107.301 42.1543 107.093 42.4493 106.823 42.7093C106.553 42.9694 106.247 43.1694 105.904 43.3044C105.545 43.4494 105.171 43.5244 104.781 43.5244Z" fill="white"/>
<path id="Vector_14" d="M110.179 39.8041V43.3994H109.327V37.8589L113.453 41.7243V38.1039H114.305V43.6695L110.179 39.8041Z" fill="white"/>
<path id="Vector_15" d="M121.76 43.4994C121.438 43.4994 121.157 43.4644 120.918 43.3994C120.679 43.3344 120.471 43.2494 120.305 43.1444C120.134 43.0394 119.993 42.9194 119.879 42.7893C119.765 42.6593 119.677 42.5343 119.609 42.4093C119.536 42.2693 119.474 42.1343 119.432 41.9943C119.391 41.8543 119.36 41.7242 119.339 41.5992C119.318 41.4742 119.308 41.3642 119.308 41.2642C119.308 41.1642 119.308 41.0842 119.308 41.0292V38.0989H120.16V41.0292C120.16 41.0742 120.16 41.1342 120.16 41.2092C120.16 41.2842 120.17 41.3642 120.18 41.4542C120.191 41.5442 120.212 41.6342 120.243 41.7342C120.269 41.8342 120.31 41.9293 120.362 42.0193C120.601 42.4543 121.069 42.6693 121.765 42.6693C122.461 42.6693 122.929 42.4543 123.168 42.0193C123.22 41.9293 123.262 41.8342 123.287 41.7342C123.319 41.6342 123.339 41.5392 123.35 41.4542C123.36 41.3642 123.371 41.2842 123.371 41.2092C123.371 41.1342 123.371 41.0742 123.371 41.0292V38.0989H124.223V41.0292C124.223 41.0842 124.223 41.1592 124.223 41.2642C124.223 41.3642 124.212 41.4742 124.192 41.5992C124.171 41.7242 124.14 41.8543 124.098 41.9943C124.056 42.1343 123.994 42.2693 123.921 42.4093C123.854 42.5343 123.765 42.6593 123.651 42.7893C123.537 42.9194 123.397 43.0394 123.225 43.1444C123.054 43.2494 122.851 43.3344 122.612 43.3994C122.373 43.4644 122.092 43.4994 121.77 43.4994" fill="white"/>
<path id="Vector_16" d="M127.117 39.8041V43.3994H126.26V37.8589L130.385 41.7243V38.1039H131.242V43.6695L127.117 39.8041Z" fill="white"/>
<path id="Vector_17" d="M137.415 40.199L136.474 43.5244L135.653 43.3144L137.181 37.9138L139.212 41.8242L141.239 37.9038L142.782 43.3193L141.961 43.5344L141.005 40.194L139.212 43.6544L137.415 40.199Z" fill="white"/>
<path id="Vector_18" d="M146.715 43.4994C146.393 43.4994 146.113 43.4644 145.874 43.3994C145.635 43.3344 145.427 43.2494 145.255 43.1444C145.084 43.0394 144.944 42.9194 144.829 42.7893C144.715 42.6593 144.627 42.5343 144.559 42.4093C144.481 42.2693 144.424 42.1343 144.383 41.9943C144.341 41.8543 144.31 41.7242 144.289 41.5992C144.268 41.4742 144.258 41.3642 144.258 41.2642C144.258 41.1642 144.258 41.0842 144.258 41.0292V38.0989H145.11V41.0292C145.11 41.0742 145.11 41.1342 145.11 41.2092C145.11 41.2842 145.12 41.3642 145.131 41.4542C145.141 41.5442 145.162 41.6342 145.193 41.7342C145.219 41.8342 145.261 41.9293 145.313 42.0193C145.552 42.4543 146.019 42.6693 146.715 42.6693C147.412 42.6693 147.879 42.4543 148.118 42.0193C148.17 41.9293 148.212 41.8342 148.238 41.7342C148.264 41.6342 148.29 41.5392 148.3 41.4542C148.31 41.3642 148.321 41.2842 148.321 41.2092C148.321 41.1342 148.321 41.0742 148.321 41.0292V38.0989H149.173V41.0292C149.173 41.0842 149.173 41.1592 149.173 41.2642C149.173 41.3642 149.163 41.4742 149.142 41.5992C149.121 41.7242 149.09 41.8543 149.048 41.9943C149.007 42.1343 148.944 42.2693 148.872 42.4093C148.804 42.5343 148.716 42.6593 148.601 42.7893C148.487 42.9194 148.347 43.0394 148.175 43.1444C148.004 43.2494 147.801 43.3344 147.562 43.3994C147.323 43.4644 147.043 43.4994 146.721 43.4994" fill="white"/>
<path id="Vector_19" d="M152.072 39.8041V43.3994H151.22V37.8589L155.345 41.7243V38.1039H156.197V43.6695L152.072 39.8041Z" fill="white"/>
<path id="Vector_20" d="M158.915 42.5742H159.974C160.265 42.5742 160.53 42.5292 160.769 42.4392C161.008 42.3492 161.216 42.2192 161.388 42.0592C161.559 41.8991 161.694 41.7041 161.788 41.4791C161.881 41.2541 161.928 41.0041 161.928 40.729C161.928 40.454 161.881 40.229 161.783 40.009C161.684 39.7889 161.549 39.5989 161.372 39.4389C161.195 39.2739 160.988 39.1489 160.754 39.0639C160.52 38.9738 160.255 38.9288 159.969 38.9288H158.909V42.5792L158.915 42.5742ZM159.974 43.3943H158.062V38.1038H159.974C160.364 38.1038 160.733 38.1688 161.076 38.2988C161.424 38.4288 161.725 38.6188 161.985 38.8638C162.24 39.1089 162.437 39.3939 162.578 39.7139C162.713 40.034 162.785 40.374 162.785 40.729C162.785 41.0841 162.718 41.4391 162.588 41.7541C162.458 42.0742 162.266 42.3542 162.016 42.6042C161.767 42.8542 161.466 43.0493 161.123 43.1843C160.759 43.3243 160.38 43.3943 159.974 43.3943Z" fill="white"/>
<path id="Vector_21" d="M166.993 38.789C166.713 38.789 166.448 38.839 166.204 38.944C165.959 39.044 165.741 39.189 165.559 39.364C165.372 39.544 165.227 39.749 165.123 39.9891C165.014 40.2241 164.962 40.4791 164.962 40.7491C164.962 41.0192 165.014 41.2692 165.123 41.5092C165.227 41.7442 165.377 41.9543 165.559 42.1343C165.741 42.3143 165.959 42.4543 166.204 42.5543C166.448 42.6593 166.713 42.7093 166.993 42.7093C167.274 42.7093 167.534 42.6593 167.783 42.5543C168.027 42.4543 168.245 42.3093 168.427 42.1343C168.614 41.9543 168.76 41.7492 168.864 41.5092C168.968 41.2742 169.025 41.0192 169.025 40.7491C169.025 40.4791 168.973 40.2241 168.864 39.9891C168.755 39.749 168.609 39.544 168.427 39.364C168.245 39.189 168.027 39.044 167.783 38.944C167.534 38.839 167.274 38.789 166.993 38.789ZM166.993 43.5244C166.604 43.5244 166.23 43.4544 165.871 43.3044C165.528 43.1694 165.222 42.9694 164.951 42.7093C164.681 42.4493 164.473 42.1543 164.333 41.8243C164.182 41.4792 164.104 41.1192 164.104 40.7441C164.104 40.3691 164.182 40.0091 164.333 39.664C164.473 39.334 164.681 39.039 164.951 38.779C165.222 38.5189 165.528 38.3189 165.871 38.1839C166.235 38.0389 166.604 37.9639 166.993 37.9639C167.383 37.9639 167.757 38.0389 168.116 38.1839C168.458 38.3189 168.765 38.5189 169.035 38.779C169.305 39.039 169.513 39.334 169.653 39.664C169.804 40.0091 169.882 40.3691 169.882 40.7441C169.882 41.1192 169.804 41.4792 169.653 41.8243C169.513 42.1543 169.305 42.4493 169.035 42.7093C168.765 42.9694 168.458 43.1694 168.116 43.3044C167.757 43.4494 167.378 43.5244 166.993 43.5244Z" fill="white"/>
<path id="Vector_22" d="M175.696 40.199L174.756 43.5244L173.93 43.3144L175.462 37.9138L177.494 41.8242L179.52 37.9038L181.063 43.3193L180.237 43.5344L179.286 40.194L177.494 43.6544L175.696 40.199Z" fill="white"/>
<path id="Vector_23" d="M183.335 38.9288V40.229H185.693V41.0491H183.335V42.5742H185.771V43.3993H182.482V38.1038H185.771V38.9288H183.335Z" fill="white"/>
<path id="Vector_24" d="M189.023 43.4994C188.774 43.4994 188.561 43.4744 188.379 43.4194C188.197 43.3644 188.041 43.2994 187.911 43.2194C187.782 43.1394 187.672 43.0594 187.589 42.9744C187.506 42.8894 187.439 42.8194 187.392 42.7644L187.371 42.7494L188.026 42.2143L188.041 42.2293C188.078 42.2743 188.124 42.3243 188.176 42.3743C188.228 42.4293 188.296 42.4743 188.374 42.5243C188.452 42.5693 188.545 42.6043 188.654 42.6393C188.758 42.6693 188.888 42.6843 189.034 42.6843C189.605 42.6843 189.985 42.5193 190.172 42.1993C190.255 42.0593 190.307 41.9143 190.322 41.7693C190.338 41.6242 190.348 41.5192 190.348 41.4442V38.1089H191.2V41.4642C191.2 41.5092 191.2 41.5742 191.195 41.6542C191.19 41.7343 191.18 41.8293 191.159 41.9293C191.138 42.0343 191.112 42.1393 191.076 42.2593C191.039 42.3743 190.982 42.4893 190.909 42.6043C190.847 42.7093 190.769 42.8144 190.665 42.9194C190.566 43.0244 190.442 43.1194 190.291 43.2044C190.14 43.2894 189.964 43.3644 189.756 43.4194C189.548 43.4744 189.304 43.4994 189.029 43.4994" fill="white"/>
<path id="Vector_25" d="M195.638 38.789C195.357 38.789 195.092 38.839 194.848 38.944C194.604 39.044 194.386 39.189 194.204 39.364C194.017 39.544 193.871 39.749 193.767 39.9891C193.658 40.2241 193.606 40.4791 193.606 40.7491C193.606 41.0192 193.658 41.2692 193.767 41.5092C193.871 41.7442 194.022 41.9543 194.204 42.1343C194.386 42.3143 194.604 42.4543 194.848 42.5543C195.092 42.6593 195.357 42.7093 195.638 42.7093C195.918 42.7093 196.178 42.6593 196.428 42.5543C196.672 42.4543 196.89 42.3093 197.072 42.1343C197.259 41.9543 197.404 41.7492 197.508 41.5092C197.612 41.2742 197.669 41.0192 197.669 40.7491C197.669 40.4791 197.617 40.2241 197.508 39.9891C197.399 39.749 197.254 39.544 197.072 39.364C196.89 39.189 196.672 39.044 196.428 38.944C196.178 38.839 195.918 38.789 195.638 38.789ZM195.638 43.5244C195.248 43.5244 194.874 43.4544 194.516 43.3044C194.173 43.1694 193.866 42.9694 193.596 42.7093C193.326 42.4493 193.118 42.1543 192.978 41.8243C192.827 41.4792 192.749 41.1192 192.749 40.7441C192.749 40.3691 192.827 40.0091 192.978 39.664C193.118 39.334 193.326 39.039 193.596 38.779C193.866 38.5189 194.173 38.3189 194.516 38.1839C194.874 38.0389 195.253 37.9639 195.638 37.9639C196.022 37.9639 196.402 38.0389 196.76 38.1839C197.103 38.3189 197.41 38.5189 197.68 38.779C197.95 39.039 198.158 39.334 198.298 39.664C198.449 40.0091 198.527 40.3691 198.527 40.7441C198.527 41.1192 198.449 41.4792 198.298 41.8243C198.158 42.1543 197.95 42.4493 197.68 42.7093C197.41 42.9694 197.103 43.1694 196.76 43.3044C196.402 43.4494 196.022 43.5244 195.638 43.5244Z" fill="white"/>
<path id="Vector_26" d="M200.916 40.9392H201.882C202.08 40.9492 202.262 40.9242 202.428 40.8692C202.589 40.8142 202.729 40.7291 202.843 40.6241C203.046 40.4291 203.15 40.1741 203.15 39.8591C203.15 39.544 203.046 39.329 202.838 39.174C202.729 39.099 202.594 39.039 202.433 38.994C202.272 38.949 202.09 38.929 201.887 38.929H200.921V40.9392H200.916ZM203.384 43.5694L201.81 41.7643H200.916V43.3994H200.059V38.1089H201.882C202.49 38.1089 202.984 38.2489 203.363 38.5339C203.576 38.6889 203.737 38.879 203.846 39.104C203.95 39.329 204.007 39.584 204.007 39.8591C204.007 40.1341 203.961 40.3741 203.867 40.6141C203.768 40.8442 203.628 41.0442 203.446 41.2142C203.259 41.3942 203.041 41.5242 202.802 41.6142L204.044 43.0394L203.389 43.5744L203.384 43.5694Z" fill="white"/>
<path id="Vector_27" d="M50.0759 17.1917C54.6169 30.308 47.3897 44.4344 33.9382 48.7448C20.4814 53.0502 5.89719 45.9195 1.36138 32.8082C-3.18483 19.6969 4.05273 5.56549 17.5043 1.26006C30.9559 -3.05037 45.5453 4.08034 50.0707 17.1967" fill="white"/>
<path id="Vector_28" d="M25.0219 30.2231C26.4767 28.7579 27.0326 27.0478 27.0326 27.0478C11.3053 24.0525 18.0389 7.11076 18.0389 7.11076C17.9766 7.19577 17.9194 7.27578 17.8571 7.36079C17.9194 7.20077 17.9766 7.04076 18.0441 6.88574C17.7895 6.99575 17.5349 7.11076 17.2855 7.23578C7.55407 12.1163 3.65212 23.7974 8.57242 33.3334C13.4875 42.8593 25.3596 46.6247 35.0859 41.7492C39.4554 39.554 42.6508 35.9736 44.3965 31.8482C37.8863 34.7835 30.5553 33.9534 25.0167 30.2231" fill="#0055B8"/>
</g>
<defs>
<clipPath id="clip0_1107_18748">
<rect width="205" height="50" fill="white"/>
</clipPath>
</defs>
</svg>